HIERARCHY
ROOT Hips
{
  OFFSET 0.248187 17.9884 0.0642639
  CHANNELS 6 Xposition Yposition Zposition Zrotation Xrotation Yrotation
  JOINT LHipJoint
  {
    OFFSET 0 0 0
    CHANNELS 3 Zrotation Xrotation Yrotation
    JOINT LeftUpLeg
    {
      OFFSET 1.8 -1.4 0.085
      CHANNELS 3 Zrotation Xrotation Yrotation
      JOINT LeftLeg
      {
        OFFSET 2.215 -6 0
        CHANNELS 3 Zrotation Xrotation Yrotation
        JOINT LeftFoot
        {
          OFFSET 2.5 -6.9 0
          CHANNELS 3 Zrotation Xrotation Yrotation
          JOINT LeftToeBase
          {
            OFFSET 0.2 -0.5 1.95
            CHANNELS 3 Zrotation Xrotation Yrotation
            End Site
            {
              OFFSET 0 0 1
            }
          }
        }
      }
    }
  }
  JOINT RHipJoint
  {
    OFFSET 0 0 0
    CHANNELS 3 Zrotation Xrotation Yrotation
    JOINT RightUpLeg
    {
      OFFSET -1.8 -1.4 0.085
      CHANNELS 3 Zrotation Xrotation Yrotation
      JOINT RightLeg
      {
        OFFSET -2.215 -6 0
        CHANNELS 3 Zrotation Xrotation Yrotation
        JOINT RightFoot
        {
          OFFSET -2.5 -6.9 0
          CHANNELS 3 Zrotation Xrotation Yrotation
          JOINT RightToeBase
          {
            OFFSET -0.2 -0.5 1.95
            CHANNELS 3 Zrotation Xrotation Yrotation
            End Site
            {
              OFFSET 0 0 1
            }
          }
        }
      }
    }
  }
  JOINT LowerBack
  {
    OFFSET 0 0 0
    CHANNELS 3 Zrotation Xrotation Yrotation
    JOINT Spine
    {
      OFFSET -0.087 1.94 -0.2889
      CHANNELS 3 Zrotation Xrotation Yrotation
      JOINT Spine1
      {
        OFFSET 0 1.95 0.06
        CHANNELS 3 Zrotation Xrotation Yrotation
        JOINT Neck
        {
          OFFSET 0 0 0
          CHANNELS 3 Zrotation Xrotation Yrotation
          JOINT Neck1
          {
            OFFSET 0 1.6 0.34
            CHANNELS 3 Zrotation Xrotation Yrotation
            JOINT Head
            {
              OFFSET 0 1.667 -0.24
              CHANNELS 3 Zrotation Xrotation Yrotation
              End Site
              {
                OFFSET 0 1.686 -0.12
              }
            }
          }
        }
        JOINT LeftShoulder
        {
          OFFSET 0 0 0
          CHANNELS 3 Zrotation Xrotation Yrotation
          JOINT LeftArm
          {
            OFFSET 2.7 1.55 -0.73
            CHANNELS 3 Zrotation Xrotation Yrotation
            JOINT LeftForeArm
            {
              OFFSET 5.45 0 0
              CHANNELS 3 Zrotation Xrotation Yrotation
              JOINT LeftHand
              {
                OFFSET 3.45 0 0
                CHANNELS 3 Zrotation Xrotation Yrotation
                JOINT LeftFingerBase
                {
                  OFFSET 0 0 0
                  CHANNELS 3 Zrotation Xrotation Yrotation
                  JOINT LeftHandIndex1
                  {
                    OFFSET 0.75 0 0
                    CHANNELS 3 Zrotation Xrotation Yrotation
                    End Site
                    {
                      OFFSET 0.6 0 0
                    }
                  }
                }
                JOINT LThumb
                {
                  OFFSET 0 0 0
                  CHANNELS 3 Zrotation Xrotation Yrotation
                  End Site
                  {
                    OFFSET 0.59 0 0.59
                  }
                }
              }
            }
          }
        }
        JOINT RightShoulder
        {
          OFFSET 0 0 0
          CHANNELS 3 Zrotation Xrotation Yrotation
          JOINT RightArm
          {
            OFFSET -2.7 1.55 -0.73
            CHANNELS 3 Zrotation Xrotation Yrotation
            JOINT RightForeArm
            {
              OFFSET -5.45 0 0
              CHANNELS 3 Zrotation Xrotation Yrotation
              JOINT RightHand
              {
                OFFSET -3.45 0 0
                CHANNELS 3 Zrotation Xrotation Yrotation
                JOINT RightFingerBase
                {
                  OFFSET 0 0 0
                  CHANNELS 3 Zrotation Xrotation Yrotation
                  JOINT RightHandIndex1
                  {
                    OFFSET -0.75 0 0
                    CHANNELS 3 Zrotation Xrotation Yrotation
                    End Site
                    {
                      OFFSET -0.6 0 0
                    }
                  }
                }
                JOINT RThumb
                {
                  OFFSET 0 0 0
                  CHANNELS 3 Zrotation Xrotation Yrotation
                  End Site
                  {
                    OFFSET -0.59 0 0.59
                  }
                }
              }
            }
          }
        }
      }
    }
  }
}
MOTION
Frames:	9
Frame Time:	0.00833333
-4.56363 9.17816 -7.86221 -3.42555 3.32868 31.3326 -1.98785e-016 0 -0 -155.396 -55.4053 -140.47 -144.72 28.5442 146.121 16.4506 -10.1831 54.6796 3.18055e-015 7.95139e-016 -0 -1.98785e-016 0 -0 140.138 -51.2875 132.815 143.828 33.8807 -165.109 12.8566 -11.9544 -10.3625 3.18055e-015 0 -3.18055e-015 -1.98785e-016 0 -0 0.984718 45.3078 0.61783 -0.606309 16.0243 1.30878 1.0013 -15.3061 -1.99421 1.84111 21.6742 -2.44287 1.19066 21.9707 -5.84427 0.341825 -8.02378e-010 3.50353 -62.86 20.7636 -77.5926 1.04613 24.4345 -0.000489506 31.5216 -0.165258 6.09841 -1.59028e-015 -3.18055e-015 1.59028e-015 -7.15625e-015 0 -1.59028e-015 -1.59028e-015 -3.18055e-015 1.59028e-015 3.57504 4.37292 32.9332 79.9989 -15.5487 77.8856 -9.418 -4.22567 5.21857 -5.38891 -1.33846e-005 -6.67146e-005 1.26035e-006 -3.31482e-007 -1.08373e-006 -1.59028e-015 0 1.59028e-015 0 0 -0 
-4.58158 9.19135 -7.8641 -3.4103 3.32262 31.3669 -1.98785e-016 -7.95139e-016 9.54166e-015 -155.204 -55.5791 -140.421 -144.735 28.6288 146.008 16.4829 -10.3467 54.5316 1.59028e-015 7.95139e-016 -3.18055e-015 -1.98785e-016 -7.95139e-016 9.54166e-015 139.951 -51.5841 132.549 143.901 33.6241 -163.931 12.6041 -13.0091 -11.1377 -3.18055e-015 -6.36111e-015 -3.18055e-015 -1.98785e-016 -7.95139e-016 9.54166e-015 0.97132 45.2736 0.611467 -0.606066 16.056 1.2955 1.00147 -15.2743 -2.00023 1.84395 21.706 -2.44992 1.07545 21.9287 -5.83797 0.341825 -8.02381e-010 3.50353 -62.8882 20.687 -77.443 1.12274 25.5152 -0.00049598 31.8058 -0.0968522 6.62678 3.18055e-015 -3.18055e-015 3.18055e-015 6.75868e-015 -1.27222e-014 3.18055e-015 3.18055e-015 -3.18055e-015 3.18055e-015 3.59087 4.38431 32.9801 79.9656 -15.6009 77.8479 -9.38603 -4.21934 5.2282 -5.38891 -1.32845e-005 -6.66578e-005 1.26035e-006 -3.31482e-007 -1.08373e-006 -1.59028e-015 9.54166e-015 -1.59028e-015 -3.18055e-015 -3.18055e-015 -0 
-4.59913 9.204 -7.86618 -3.39781 3.31724 31.3995 3.97569e-016 1.19271e-015 3.18055e-015 -155.027 -55.7475 -140.36 -144.746 28.7205 145.898 16.5468 -10.507 54.4381 3.18055e-015 3.18055e-015 3.18055e-015 3.97569e-016 1.19271e-015 3.18055e-015 139.799 -51.845 132.316 143.98 33.3602 -162.781 12.3053 -13.9769 -11.9615 6.36111e-015 0 -0 3.97569e-016 1.19271e-015 3.18055e-015 0.957865 45.2452 0.60738 -0.605907 16.0817 1.28469 1.00336 -15.2415 -2.00567 1.84841 21.7387 -2.45687 0.964035 21.8806 -5.82856 0.341825 -8.02378e-010 3.50353 -62.9068 20.6269 -77.3329 1.18141 26.3403 -0.000501626 32.0384 -0.0442815 7.0279 -3.18055e-015 -6.36111e-015 -0 7.95139e-016 0 -1.59028e-015 -3.18055e-015 -6.36111e-015 -0 3.60494 4.39446 33.0229 79.9336 -15.6507 77.8131 -9.35654 -4.21336 5.23201 -5.38891 -1.31832e-005 -6.65975e-005 1.26035e-006 -3.31482e-007 -1.08373e-006 -6.36111e-015 9.54166e-015 -1.59028e-015 -2.64834e-031 -9.54166e-015 -1.59028e-015 
-4.6098 9.21062 -7.86726 -3.39045 3.31169 31.4282 -7.95139e-016 -3.97569e-016 6.36111e-015 -154.933 -55.8797 -140.266 -144.746 28.7864 145.836 16.7363 -10.6633 54.4665 2.38542e-015 1.03368e-014 3.18055e-015 -7.95139e-016 -3.97569e-016 6.36111e-015 139.798 -51.9367 132.26 144.028 33.1984 -162.124 12.0792 -14.3888 -12.554 2.64834e-031 -3.18055e-015 4.77083e-015 -7.95139e-016 -3.97569e-016 6.36111e-015 0.946342 45.2277 0.608012 -0.607305 16.0926 1.28037 1.0103 -15.2107 -2.0094 1.85763 21.7694 -2.46345 0.897663 21.8366 -5.81776 0.341825 -8.02365e-010 3.50353 -62.9055 20.6152 -77.3209 1.19264 26.4953 -0.000504455 32.1098 -0.0399481 7.05335 3.57812e-015 6.36111e-015 -0 -2.38542e-015 6.36111e-015 -0 3.57812e-015 6.36111e-015 -0 3.61572 4.40226 33.0558 79.9068 -15.6939 77.7849 -9.33518 -4.2086 5.21685 -5.38891 -1.30806e-005 -6.65336e-005 1.26035e-006 -3.31482e-007 -1.08373e-006 -3.18055e-015 3.18055e-015 -3.18055e-015 3.18055e-015 9.54166e-015 -1.59028e-015 
-4.61409 9.2115 -7.86749 -3.38904 3.30541 31.4511 5.96354e-016 3.97569e-016 -6.36111e-015 -154.92 -55.9757 -140.142 -144.737 28.8263 145.818 17.0446 -10.8158 54.6192 2.38542e-015 1.59028e-015 -3.18055e-015 5.96354e-016 3.97569e-016 -6.36111e-015 139.995 -51.827 132.418 144.04 33.1383 -161.924 11.9214 -14.1833 -13.0007 7.95139e-015 -3.18055e-015 -3.18055e-015 5.96354e-016 3.97569e-016 -6.36111e-015 0.935442 45.2259 0.615105 -0.609917 16.0823 1.28372 1.02249 -15.1814 -2.01073 1.87153 21.7985 -2.46897 0.878411 21.7955 -5.80349 0.341825 -8.02371e-010 3.50353 -62.8766 20.6683 -77.4411 1.1388 25.7281 -0.000503287 31.9819 -0.099971 6.56903 -3.57812e-015 0 -3.18055e-015 7.95139e-016 0 -1.59028e-015 -3.57812e-015 0 -3.18055e-015 3.62279 4.40698 33.0741 79.883 -15.7264 77.7622 -9.31941 -4.20461 5.17741 -5.38891 -1.29767e-005 -6.64661e-005 1.26035e-006 -3.31482e-007 -1.08373e-006 -4.77083e-015 0 3.18055e-015 -1.76556e-031 -6.36111e-015 -1.59028e-015 
-4.61503 9.20933 -7.86736 -3.39152 3.29929 31.471 -5.96354e-016 -7.95139e-016 -0 -154.953 -56.0517 -139.997 -144.722 28.8582 145.823 17.4293 -10.9619 54.8581 1.59028e-015 1.43125e-014 -0 -5.96354e-016 -7.95139e-016 -0 140.285 -51.6161 132.68 144.031 33.1305 -161.956 11.805 -13.6752 -13.3659 -0 0 1.59028e-015 -5.96354e-016 -7.95139e-016 -0 0.925268 45.2329 0.625792 -0.613265 16.0612 1.29153 1.03796 -15.1524 -2.01088 1.8885 21.8273 -2.4742 0.882281 21.7528 -5.78668 0.341825 -8.02368e-010 3.50353 -62.8323 20.7535 -77.6319 1.05145 24.4861 -0.000500301 31.7462 -0.192679 5.82793 2.78299e-015 1.59028e-015 3.18055e-015 4.77083e-015 -3.18055e-015 1.59028e-015 2.78299e-015 1.59028e-015 3.18055e-015 3.62733 4.40991 33.0853 79.8621 -15.7542 77.7441 -9.30838 -4.20127 5.12548 -5.38891 -1.28717e-005 -6.6395e-005 1.26035e-006 -3.31482e-007 -1.08373e-006 -4.77083e-015 1.59028e-014 -1.59028e-015 -2.64834e-031 9.54166e-015 1.59028e-015 
-4.61445 9.20584 -7.86715 -3.39566 3.29474 31.4921 1.98785e-016 -1.19271e-015 3.18055e-015 -155.008 -56.12 -139.831 -144.699 28.8964 145.843 17.8661 -11.0981 55.1521 -7.95139e-016 -4.77083e-015 3.18055e-015 1.98785e-016 -1.19271e-015 3.18055e-015 140.554 -51.4113 132.932 144.01 33.1435 -162.083 11.7273 -13.1644 -13.6087 1.59028e-015 0 3.18055e-015 1.98785e-016 -1.19271e-015 3.18055e-015 0.917181 45.2385 0.636213 -0.617327 16.0434 1.30025 1.05504 -15.1233 -2.01145 1.90737 21.8562 -2.48036 0.889247 21.7066 -5.77006 0.341825 -8.02378e-010 3.50353 -62.7891 20.8316 -77.8133 0.97145 23.3502 -0.000497995 31.51 -0.278549 5.15048 -2.78299e-015 0 -1.59028e-015 3.97569e-016 1.59028e-015 -0 -2.78299e-015 0 -1.59028e-015 3.63069 4.41281 33.0991 79.8459 -15.7852 77.7308 -9.30394 -4.19899 5.07511 -5.38891 -1.27653e-005 -6.63203e-005 1.26035e-006 -3.31482e-007 -1.08373e-006 -1.59028e-015 -9.54166e-015 1.59028e-015 -3.18055e-015 -3.18055e-015 -0 
-4.61404 9.20265 -7.86707 -3.39882 3.29278 31.5183 -9.93923e-016 3.97569e-016 3.18055e-015 -155.062 -56.1922 -139.642 -144.666 28.9547 145.868 18.3339 -11.2217 55.4741 -4.41391e-032 7.95139e-016 3.18055e-015 -9.93923e-016 3.97569e-016 3.18055e-015 140.69 -51.3187 133.065 143.987 33.1474 -162.175 11.6807 -12.9399 -13.6832 1.59028e-015 3.18055e-015 4.77083e-015 -9.93923e-016 3.97569e-016 3.18055e-015 0.912573 45.2332 0.642596 -0.622204 16.0426 1.30647 1.07224 -15.0937 -2.01401 1.92713 21.8856 -2.48872 0.879972 21.6546 -5.75629 0.341825 -8.02371e-010 3.50353 -62.7644 20.8667 -77.9056 0.93864 22.8895 -0.000498346 31.3803 -0.318588 4.8504 4.37326e-015 0 -1.59028e-015 5.56597e-015 -1.59028e-015 1.59028e-015 4.37326e-015 0 -1.59028e-015 3.63429 4.41744 33.1255 79.8361 -15.8279 77.7225 -9.30796 -4.19809 5.03998 -5.38891 -1.26578e-005 -6.62419e-005 1.26035e-006 -3.31482e-007 -1.08373e-006 -3.18055e-015 6.36111e-015 -1.59028e-015 0 9.54166e-015 -0 
-4.61244 9.19875 -7.86683 -3.39883 3.29176 31.5503 -3.53113e-031 1.59028e-015 1.27222e-014 -155.124 -56.2652 -139.401 -144.622 29.0345 145.909 18.8756 -11.327 55.8733 2.38542e-015 5.56597e-015 9.54166e-015 -3.53113e-031 1.59028e-015 1.27222e-014 140.673 -51.3458 133.072 143.958 33.1544 -162.303 11.7008 -12.9955 -13.4931 1.11319e-014 -1.27222e-014 -3.18055e-015 -3.53113e-031 1.59028e-015 1.27222e-014 0.912334 45.2178 0.644683 -0.629553 16.0587 1.31089 1.09109 -15.0614 -2.01902 1.94962 21.9176 -2.50028 0.856242 21.5931 -5.74551 0.341825 -8.02368e-010 3.50353 -62.7636 20.858 -77.8967 0.958022 23.1761 -0.00050146 31.3509 -0.308773 4.96725 3.97569e-016 -1.59028e-015 -0 3.18055e-015 3.18055e-015 -0 3.97569e-016 -1.59028e-015 -0 3.64049 4.42485 33.1665 79.834 -15.8863 77.7174 -9.32184 -4.19864 5.02077 -5.38891 -1.25491e-005 -6.61599e-005 1.26035e-006 -3.31482e-007 -1.08373e-006 -3.18055e-015 -3.18055e-015 -3.18055e-015 1.59028e-015 0 1.59028e-015 
